<svg width="24" height="24" viewBox="0 0 24 24" fill="none" xmlns="http://www.w3.org/2000/svg">
<path fill-rule="evenodd" clip-rule="evenodd" d="M12 24.0002C18.6274 24.0002 24 18.6277 24 12.0002C24 5.37283 18.6274 0.000244141 12 0.000244141C5.37258 0.000244141 0 5.37283 0 12.0002C0 18.6277 5.37258 24.0002 12 24.0002ZM17.3048 7.30477L10.8535 14.0595L7.69515 10.7526C7.30736 10.3466 6.67863 10.3466 6.29084 10.7526C5.90305 11.1587 5.90305 11.817 6.29084 12.223L10.8535 17.0002L18.7092 8.77512C19.0969 8.3691 19.0969 7.71079 18.7092 7.30477C18.3214 6.89874 17.6926 6.89874 17.3048 7.30477Z" fill="#FF5D17"/>
</svg>
